<?xml version="1.0" encoding="UTF-8" standalone="no"?>
<!-- Created with Inkscape (http://www.inkscape.org/) -->

<svg
   version="1.1"
   id="svg2"
   width="794"
   height="1123"
   viewBox="0 0 794 1123"
   xmlns="http://www.w3.org/2000/svg"
   xmlns:svg="http://www.w3.org/2000/svg">
  <defs
     id="defs6">
    <clipPath
       clipPathUnits="userSpaceOnUse"
       id="clipPath18">
      <path
         d="M 0,0 H 2481.25 V 3509.375 H 0 Z"
         clip-rule="evenodd"
         id="path16" />
    </clipPath>
    <clipPath
       clipPathUnits="userSpaceOnUse"
       id="clipPath30">
      <path
         d="M 0,0 H 2481.25 V 3509.375 H 0 Z"
         clip-rule="evenodd"
         id="path28" />
    </clipPath>
    <clipPath
       clipPathUnits="userSpaceOnUse"
       id="clipPath42">
      <path
         d="M 0,0 H 2481.25 V 3509.375 H 0 Z"
         clip-rule="evenodd"
         id="path40" />
    </clipPath>
    <clipPath
       clipPathUnits="userSpaceOnUse"
       id="clipPath54">
      <path
         d="M 308.49939,2632.1362 H 1129.463 v 514.5422 H 308.49939 Z"
         clip-rule="evenodd"
         id="path52" />
    </clipPath>
    <clipPath
       clipPathUnits="userSpaceOnUse"
       id="clipPath66">
      <path
         d="M 0,0 H 2481.25 V 3509.375 H 0 Z"
         id="path64" />
    </clipPath>
    <clipPath
       clipPathUnits="userSpaceOnUse"
       id="clipPath72">
      <path
         d="M 0,0 H 2481.25 V 3509.375 H 0 Z"
         id="path70" />
    </clipPath>
    <clipPath
       clipPathUnits="userSpaceOnUse"
       id="clipPath78">
      <path
         d="m 366.55609,2819.0286 2.28504,118.7727 -118.77277,2.2851 -2.28503,-118.7727 z"
         id="path76" />
    </clipPath>
    <clipPath
       clipPathUnits="userSpaceOnUse"
       id="clipPath84">
      <path
         d="m 368.83456,2937.4595 -2.28506,-118.7727 -118.77277,2.2849 2.28507,118.7729 z"
         id="path82" />
    </clipPath>
    <clipPath
       clipPathUnits="userSpaceOnUse"
       id="clipPath98">
      <path
         d="m 1293.078,2625.0488 h 820.9635 v 521.6294 H 1293.078 Z"
         clip-rule="evenodd"
         id="path96" />
    </clipPath>
    <clipPath
       clipPathUnits="userSpaceOnUse"
       id="clipPath110">
      <path
         d="M 0,0 H 2481.25 V 3509.375 H 0 Z"
         id="path108" />
    </clipPath>
    <clipPath
       clipPathUnits="userSpaceOnUse"
       id="clipPath116">
      <path
         d="M 0,0 H 2481.25 V 3509.375 H 0 Z"
         id="path114" />
    </clipPath>
    <clipPath
       clipPathUnits="userSpaceOnUse"
       id="clipPath122">
      <path
         d="m 1351.1371,2829.0613 2.285,118.7727 -118.7727,2.2851 -2.2851,-118.7727 z"
         id="path120" />
    </clipPath>
    <clipPath
       clipPathUnits="userSpaceOnUse"
       id="clipPath128">
      <path
         d="m 1353.4155,2947.4922 -2.285,-118.7727 -118.7728,2.2849 2.285,118.7729 z"
         id="path126" />
    </clipPath>
    <clipPath
       clipPathUnits="userSpaceOnUse"
       id="clipPath142">
      <path
         d="m 0,3359.22 h 2481.25 v 150.155 H 0 Z"
         clip-rule="evenodd"
         id="path140" />
    </clipPath>
  </defs>
  <g
     id="g8"
     transform="matrix(1.3333333,0,0,-1.3333333,0,1133.4399)">
    <g
       id="g10"
       transform="matrix(0.23999999,0,0,-0.23999999,0,850.07996)">
      <g
         id="g12">
        <g
           id="g14"
           clip-path="url(#clipPath18)">
          <g
             id="g20"
             transform="scale(3.125)">
            <path
               d="M 0,0 H 794 V 1123 H 0 Z"
               style="fill:#ffffff;fill-opacity:1;fill-rule:nonzero;stroke:none"
               id="path22" />
          </g>
        </g>
      </g>
      <g
         id="g24">
        <g
           id="g26"
           clip-path="url(#clipPath30)">
          <g
             id="g32"
             transform="scale(3.126178)">
            <path
               d="M 0,0 H 794 V 1123 H 0 Z"
               style="fill:#dddede;fill-opacity:1;fill-rule:nonzero;stroke:none"
               id="path34" />
          </g>
        </g>
      </g>
      <g
         id="g36">
        <g
           id="g38"
           clip-path="url(#clipPath42)">
          <g
             id="g44"
             transform="matrix(3.126178,0,0,3.126178,-89.010307,321.49234)">
            <path
               d="M 3,3 H 513.87915"
               style="fill:none;stroke:#dfb704;stroke-width:1;stroke-linecap:butt;stroke-linejoin:miter;stroke-miterlimit:10;stroke-dasharray:none;stroke-opacity:1"
               id="path46" />
          </g>
        </g>
      </g>
      <g
         id="g48">
        <g
           id="g50"
           clip-path="url(#clipPath54)">
          <g
             id="g56"
             transform="matrix(0,-3.1261778,3.1261778,0,308.49939,3146.6785)">
            <path
               d="M 0,0 H 164.59145 V 262.60938 H 0 Z"
               style="fill:none;stroke:#dfb704;stroke-width:1;stroke-linecap:butt;stroke-linejoin:miter;stroke-miterlimit:10;stroke-dasharray:none;stroke-opacity:1"
               id="path58" />
          </g>
        </g>
      </g>
      <g
         id="g60">
        <g
           id="g62"
           clip-path="url(#clipPath66)">
          <g
             id="g68"
             clip-path="url(#clipPath72)">
            <g
               id="g74"
               clip-path="url(#clipPath78)">
              <g
                 id="g80"
                 clip-path="url(#clipPath84)">
                <g
                   id="g86"
                   transform="matrix(-0.02287623,-1.1890653,-1.1890653,0.02287623,381.19635,2949.3545)">
                  <path
                     d="m 109.8,60 c 0,3.269917 -0.31897,6.508415 -0.9569,9.715492 -0.63793,3.207085 -1.58256,6.321121 -2.8339,9.342125 -1.25135,3.021004 -2.78535,5.89093 -4.60203,8.609764 -1.816662,2.718842 -3.881085,5.234352 -6.193257,7.546532 -2.31218,2.312172 -4.82769,4.376595 -7.546532,6.193257 -2.718834,1.81668 -5.58876,3.35068 -8.609764,4.60203 -3.021004,1.25134 -6.13504,2.19597 -9.342125,2.8339 C 66.508415,109.48103 63.269917,109.8 60,109.8 c -3.269917,0 -6.508419,-0.31897 -9.7155,-0.9569 -3.207088,-0.63793 -6.321133,-1.58256 -9.342136,-2.8339 -3.021008,-1.25135 -5.890927,-2.78535 -8.609761,-4.60203 -2.718835,-1.816662 -5.234342,-3.881085 -7.54652,-6.193257 -2.312179,-2.31218 -4.376602,-4.82769 -6.19327,-7.546532 -1.816667,-2.718834 -3.350671,-5.58876 -4.602014,-8.609764 -1.251342,-3.021004 -2.195977,-6.13504 -2.833906,-9.342125 C 10.518964,66.508415 10.2,63.269917 10.200001,60 c -1e-6,-3.269917 0.318964,-6.508419 0.956893,-9.7155 0.637928,-3.207088 1.582563,-6.321133 2.833905,-9.342136 1.251343,-3.021008 2.785347,-5.890927 4.602014,-8.609761 1.816668,-2.718835 3.881091,-5.234342 6.19327,-7.54652 2.312178,-2.312179 4.827685,-4.376602 7.54652,-6.19327 2.718834,-1.816667 5.588753,-3.350671 8.609761,-4.602014 3.021003,-1.251342 6.135048,-2.195976 9.342136,-2.833905 3.207081,-0.637929 6.445583,-0.956893 9.7155,-0.956893 3.269917,0 6.508415,0.318964 9.715492,0.956893 3.207085,0.637929 6.321121,1.582563 9.342125,2.833905 3.021004,1.251343 5.89093,2.785347 8.609764,4.602014 2.718842,1.816668 5.234352,3.881091 7.546532,6.19327 2.312172,2.312178 4.376595,4.827685 6.193257,7.54652 1.81668,2.718834 3.35068,5.588753 4.60203,8.609761 1.25134,3.021003 2.19597,6.135048 2.8339,9.342136 0.63793,3.207081 0.9569,6.445583 0.9569,9.7155 z"
                     style="fill:#dfb704;fill-opacity:1;fill-rule:nonzero;stroke:none"
                     id="path88" />
                  <path
                     d="m 82.5,71.599998 c -0.599998,0 -1.300003,-0.199996 -1.699997,-0.699996 L 60,54.5 39.200001,70.900002 c -0.5,0.400001 -1.099999,0.699996 -1.700001,0.699996 -0.799999,0 -1.400002,-0.300003 -1.900002,-0.900001 C 34.599998,69.599998 34.699997,68 35.799999,67 L 58.199997,49.099998 c 0.1,-0.1 0.1,-0.1 0.200001,-0.2 0.1,-0.1 0.2,-0.1 0.2,-0.200001 0.1,0 0.1,-0.1 0.200001,-0.1 0.1,0 0.200001,-0.1 0.200001,-0.1 0.1,0 0.200001,-0.1 0.200001,-0.1 0.1,0 0.200001,0 0.200001,-0.1 0.1,0 0.2,0 0.2,0 0.1,0 0.1,0 0.200001,0 0,0 0.1,0 0.1,0 0.1,0 0.1,0 0.2,0 0.1,0 0.200001,0 0.200001,0 0.1,0 0.200001,0 0.200001,0.1 0.1,0 0.200001,0.1 0.200001,0.1 0.1,0 0.2,0.1 0.2,0.1 0.1,0 0.1,0.1 0.200001,0.1 0.1,0 0.1,0.1 0.200001,0.200001 0.1,0.1 0.200001,0.1 0.200001,0.2 L 84.199997,67 c 0.599998,0.5 0.900001,1.199997 0.900001,1.900002 0,0.599998 -0.199996,1.300003 -0.699996,1.699996 -0.5,0.700005 -1.200005,1 -1.900002,1 z"
                     style="fill:#0c0c0c;fill-opacity:1;fill-rule:nonzero;stroke:none"
                     id="path90" />
                </g>
              </g>
            </g>
          </g>
        </g>
      </g>
      <g
         id="g92">
        <g
           id="g94"
           clip-path="url(#clipPath98)">
          <g
             id="g100"
             transform="matrix(0,-3.1261778,3.1261778,0,1293.078,3146.6782)">
            <path
               d="M 0,0 H 166.85852 V 262.60938 H 0 Z"
               style="fill:none;stroke:#dfb704;stroke-width:1;stroke-linecap:butt;stroke-linejoin:miter;stroke-miterlimit:10;stroke-dasharray:none;stroke-opacity:1"
               id="path102" />
          </g>
        </g>
      </g>
      <g
         id="g104">
        <g
           id="g106"
           clip-path="url(#clipPath110)">
          <g
             id="g112"
             clip-path="url(#clipPath116)">
            <g
               id="g118"
               clip-path="url(#clipPath122)">
              <g
                 id="g124"
                 clip-path="url(#clipPath128)">
                <g
                   id="g130"
                   transform="matrix(-0.02287623,-1.1890653,-1.1890653,0.02287623,1365.7772,2959.3872)">
                  <path
                     d="m 109.8,60 c 0,3.269917 -0.31897,6.508415 -0.9569,9.715492 -0.63793,3.207085 -1.58256,6.321121 -2.8339,9.342125 -1.25135,3.021004 -2.78535,5.89093 -4.60203,8.609764 -1.816662,2.718842 -3.881085,5.234352 -6.193257,7.546532 -2.31218,2.312172 -4.82769,4.376595 -7.546532,6.193257 -2.718834,1.81668 -5.58876,3.35068 -8.609764,4.60203 -3.021004,1.25134 -6.13504,2.19597 -9.342125,2.8339 C 66.508415,109.48103 63.269917,109.8 60,109.8 c -3.269917,0 -6.508419,-0.31897 -9.7155,-0.9569 -3.207088,-0.63793 -6.321133,-1.58256 -9.342136,-2.8339 -3.021008,-1.25135 -5.890927,-2.78535 -8.609761,-4.60203 -2.718835,-1.816662 -5.234342,-3.881085 -7.54652,-6.193257 -2.312179,-2.31218 -4.376602,-4.82769 -6.19327,-7.546532 -1.816667,-2.718834 -3.350671,-5.58876 -4.602014,-8.609764 -1.251342,-3.021004 -2.195977,-6.13504 -2.833906,-9.342125 C 10.518964,66.508415 10.2,63.269917 10.200001,60 c -1e-6,-3.269917 0.318964,-6.508419 0.956893,-9.7155 0.637928,-3.207088 1.582563,-6.321133 2.833905,-9.342136 1.251343,-3.021008 2.785347,-5.890927 4.602014,-8.609761 1.816668,-2.718835 3.881091,-5.234342 6.19327,-7.54652 2.312178,-2.312179 4.827685,-4.376602 7.54652,-6.19327 2.718834,-1.816667 5.588753,-3.350671 8.609761,-4.602014 3.021003,-1.251342 6.135048,-2.195976 9.342136,-2.833905 3.207081,-0.637929 6.445583,-0.956893 9.7155,-0.956893 3.269917,0 6.508415,0.318964 9.715492,0.956893 3.207085,0.637929 6.321121,1.582563 9.342125,2.833905 3.021004,1.251343 5.89093,2.785347 8.609764,4.602014 2.718842,1.816668 5.234352,3.881091 7.546532,6.19327 2.312172,2.312178 4.376595,4.827685 6.193257,7.54652 1.81668,2.718834 3.35068,5.588753 4.60203,8.609761 1.25134,3.021003 2.19597,6.135048 2.8339,9.342136 0.63793,3.207081 0.9569,6.445583 0.9569,9.7155 z"
                     style="fill:#dfb704;fill-opacity:1;fill-rule:nonzero;stroke:none"
                     id="path132" />
                  <path
                     d="m 82.5,71.599998 c -0.599998,0 -1.300003,-0.199996 -1.699997,-0.699996 L 60,54.5 39.200001,70.900002 c -0.5,0.400001 -1.099999,0.699996 -1.700001,0.699996 -0.799999,0 -1.400002,-0.300003 -1.900002,-0.900001 C 34.599998,69.599998 34.699997,68 35.799999,67 L 58.199997,49.099998 c 0.1,-0.1 0.1,-0.1 0.200001,-0.2 0.1,-0.1 0.2,-0.1 0.2,-0.200001 0.1,0 0.1,-0.1 0.200001,-0.1 0.1,0 0.200001,-0.1 0.200001,-0.1 0.1,0 0.200001,-0.1 0.200001,-0.1 0.1,0 0.200001,0 0.200001,-0.1 0.1,0 0.2,0 0.2,0 0.1,0 0.1,0 0.200001,0 0,0 0.1,0 0.1,0 0.1,0 0.1,0 0.2,0 0.1,0 0.200001,0 0.200001,0 0.1,0 0.200001,0 0.200001,0.1 0.1,0 0.200001,0.1 0.200001,0.1 0.1,0 0.2,0.1 0.2,0.1 0.1,0 0.1,0.1 0.200001,0.1 0.1,0 0.1,0.1 0.200001,0.200001 0.1,0.1 0.200001,0.1 0.200001,0.2 L 84.199997,67 c 0.599998,0.5 0.900001,1.199997 0.900001,1.900002 0,0.599998 -0.199996,1.300003 -0.699996,1.699996 -0.5,0.700005 -1.200005,1 -1.900002,1 z"
                     style="fill:#0c0c0c;fill-opacity:1;fill-rule:nonzero;stroke:none"
                     id="path134" />
                </g>
              </g>
            </g>
          </g>
        </g>
      </g>
      <g
         id="g136">
        <g
           id="g138"
           clip-path="url(#clipPath142)">
          <g
             id="g144"
             transform="matrix(0,-0.88881803,0.88881803,0,-89.007156,3586.7573)">
            <path
               d="M 0,0 H 256 V 2992 H 0 Z"
               style="fill:#dfb704;fill-opacity:1;fill-rule:nonzero;stroke:none"
               id="path146" />
          </g>
        </g>
      </g>
    </g>
    <path
       d="M -21.354424,768.09064 H 366.30491 v 4.5 H -21.354424 Z"
       style="fill:#000000;fill-opacity:0;fill-rule:nonzero;stroke:none"
       id="path148" />
    <path
       d="m 59.527557,144.444 h 28.963896 v 28.9639 H 59.527557 Z"
       style="fill:#000000;fill-opacity:0;fill-rule:nonzero;stroke:none"
       id="path150" />
    <path
       d="m 295.73795,142.03703 h 28.9639 v 28.9639 h -28.9639 z"
       style="fill:#000000;fill-opacity:0;fill-rule:nonzero;stroke:none"
       id="path152" />
  </g>
</svg>
