<?xml version="1.0" encoding="UTF-8" standalone="no"?>
<!-- Created with Inkscape (http://www.inkscape.org/) -->

<svg
   version="1.1"
   id="svg2"
   width="794"
   height="1123"
   viewBox="0 0 794 1123"
   xmlns="http://www.w3.org/2000/svg"
   xmlns:svg="http://www.w3.org/2000/svg">
  <defs
     id="defs6">
    <clipPath
       clipPathUnits="userSpaceOnUse"
       id="clipPath18">
      <path
         d="M 0,0 H 2481.25 V 3509.375 H 0 Z"
         clip-rule="evenodd"
         id="path16" />
    </clipPath>
    <clipPath
       clipPathUnits="userSpaceOnUse"
       id="clipPath30">
      <path
         d="M 0,0 H 2481.25 V 3509.375 H 0 Z"
         clip-rule="evenodd"
         id="path28" />
    </clipPath>
    <clipPath
       clipPathUnits="userSpaceOnUse"
       id="clipPath42">
      <path
         d="M 0,0 H 2481.25 V 3509.375 H 0 Z"
         clip-rule="evenodd"
         id="path40" />
    </clipPath>
    <clipPath
       clipPathUnits="userSpaceOnUse"
       id="clipPath54">
      <path
         d="M 0,999.12964 H 2481.25 V 3509.375 H 0 Z"
         clip-rule="evenodd"
         id="path52" />
    </clipPath>
    <clipPath
       clipPathUnits="userSpaceOnUse"
       id="clipPath66">
      <path
         d="m 1406.1757,1272.2371 h 738.4159 v 422.034 h -738.4159 z"
         clip-rule="evenodd"
         id="path64" />
    </clipPath>
    <clipPath
       clipPathUnits="userSpaceOnUse"
       id="clipPath78">
      <path
         d="M 0,0 H 2481.25 V 3509.375 H 0 Z"
         id="path76" />
    </clipPath>
    <clipPath
       clipPathUnits="userSpaceOnUse"
       id="clipPath84">
      <path
         d="M 0,0 H 2481.25 V 3509.375 H 0 Z"
         id="path82" />
    </clipPath>
    <clipPath
       clipPathUnits="userSpaceOnUse"
       id="clipPath90">
      <path
         d="m 1458.5204,1431.6051 2.0445,106.2704 -106.2703,2.0445 -2.0446,-106.2703 z"
         id="path88" />
    </clipPath>
    <clipPath
       clipPathUnits="userSpaceOnUse"
       id="clipPath96">
      <path
         d="m 1460.5743,1538.3638 -2.0445,-106.2704 -106.2704,2.0445 2.0446,106.2704 z"
         id="path94" />
    </clipPath>
    <clipPath
       clipPathUnits="userSpaceOnUse"
       id="clipPath110">
      <path
         d="m 1406.1757,1771.5031 h 738.4159 v 422.0341 h -738.4159 z"
         clip-rule="evenodd"
         id="path108" />
    </clipPath>
    <clipPath
       clipPathUnits="userSpaceOnUse"
       id="clipPath122">
      <path
         d="M 0,0 H 2481.25 V 3509.375 H 0 Z"
         id="path120" />
    </clipPath>
    <clipPath
       clipPathUnits="userSpaceOnUse"
       id="clipPath128">
      <path
         d="M 0,0 H 2481.25 V 3509.375 H 0 Z"
         id="path126" />
    </clipPath>
    <clipPath
       clipPathUnits="userSpaceOnUse"
       id="clipPath134">
      <path
         d="m 1458.5204,1930.8712 2.0445,106.2704 -106.2703,2.0446 -2.0446,-106.2704 z"
         id="path132" />
    </clipPath>
    <clipPath
       clipPathUnits="userSpaceOnUse"
       id="clipPath140">
      <path
         d="m 1460.5743,2037.6299 -2.0445,-106.2704 -106.2704,2.0446 2.0446,106.2703 z"
         id="path138" />
    </clipPath>
    <clipPath
       clipPathUnits="userSpaceOnUse"
       id="clipPath154">
      <path
         d="m 1406.1757,2270.5115 h 738.4159 v 422.0339 h -738.4159 z"
         clip-rule="evenodd"
         id="path152" />
    </clipPath>
    <clipPath
       clipPathUnits="userSpaceOnUse"
       id="clipPath166">
      <path
         d="M 0,0 H 2481.25 V 3509.375 H 0 Z"
         id="path164" />
    </clipPath>
    <clipPath
       clipPathUnits="userSpaceOnUse"
       id="clipPath172">
      <path
         d="M 0,0 H 2481.25 V 3509.375 H 0 Z"
         id="path170" />
    </clipPath>
    <clipPath
       clipPathUnits="userSpaceOnUse"
       id="clipPath178">
      <path
         d="m 1458.5204,2429.8794 2.0445,106.2703 -106.2703,2.0446 -2.0446,-106.2705 z"
         id="path176" />
    </clipPath>
    <clipPath
       clipPathUnits="userSpaceOnUse"
       id="clipPath184">
      <path
         d="m 1460.5743,2536.6382 -2.0445,-106.2703 -106.2704,2.0445 2.0446,106.2702 z"
         id="path182" />
    </clipPath>
    <clipPath
       clipPathUnits="userSpaceOnUse"
       id="clipPath198">
      <path
         d="m 1406.1757,2769.5193 h 738.4159 v 422.0339 h -738.4159 z"
         clip-rule="evenodd"
         id="path196" />
    </clipPath>
    <clipPath
       clipPathUnits="userSpaceOnUse"
       id="clipPath210">
      <path
         d="M 0,0 H 2481.25 V 3509.375 H 0 Z"
         id="path208" />
    </clipPath>
    <clipPath
       clipPathUnits="userSpaceOnUse"
       id="clipPath216">
      <path
         d="M 0,0 H 2481.25 V 3509.375 H 0 Z"
         id="path214" />
    </clipPath>
    <clipPath
       clipPathUnits="userSpaceOnUse"
       id="clipPath222">
      <path
         d="m 1458.5204,2928.8875 2.0445,106.2702 -106.2703,2.0447 -2.0446,-106.2705 z"
         id="path220" />
    </clipPath>
    <clipPath
       clipPathUnits="userSpaceOnUse"
       id="clipPath228">
      <path
         d="m 1460.5743,3035.6462 -2.0445,-106.2702 -106.2704,2.0444 2.0446,106.2703 z"
         id="path226" />
    </clipPath>
  </defs>
  <g
     id="g8"
     transform="matrix(1.3333333,0,0,-1.3333333,0,1133.4399)">
    <g
       id="g10"
       transform="matrix(0.23999999,0,0,-0.23999999,0,850.07996)">
      <g
         id="g12">
        <g
           id="g14"
           clip-path="url(#clipPath18)">
          <g
             id="g20"
             transform="scale(3.125)">
            <path
               d="M 0,0 H 794 V 1123 H 0 Z"
               style="fill:#ffffff;fill-opacity:1;fill-rule:nonzero;stroke:none"
               id="path22" />
          </g>
        </g>
      </g>
      <g
         id="g24">
        <g
           id="g26"
           clip-path="url(#clipPath30)">
          <g
             id="g32"
             transform="scale(3.126178)">
            <path
               d="M 0,0 H 794 V 1123 H 0 Z"
               style="fill:#dddede;fill-opacity:1;fill-rule:nonzero;stroke:none"
               id="path34" />
          </g>
        </g>
      </g>
      <g
         id="g36">
        <g
           id="g38"
           clip-path="url(#clipPath42)">
          <g
             id="g44"
             transform="matrix(3.126178,0,0,3.126178,-89.010307,321.49234)">
            <path
               d="M 3,3 H 513.87915"
               style="fill:none;stroke:#dfb704;stroke-width:1;stroke-linecap:butt;stroke-linejoin:miter;stroke-miterlimit:10;stroke-dasharray:none;stroke-opacity:1"
               id="path46" />
          </g>
        </g>
      </g>
      <g
         id="g48">
        <g
           id="g50"
           clip-path="url(#clipPath54)">
          <g
             id="g56"
             transform="matrix(0,-10.119983,10.119983,0,-67.563843,3589.8452)">
            <path
               d="M 0,0 H 256 V 263 H 0 Z"
               style="fill:#dfb704;fill-opacity:1;fill-rule:nonzero;stroke:none"
               id="path58" />
          </g>
        </g>
      </g>
      <g
         id="g60">
        <g
           id="g62"
           clip-path="url(#clipPath66)">
          <g
             id="g68"
             transform="matrix(0,-3.1196785,3.1196785,0,1406.1757,1694.2711)">
            <path
               d="M 0,0 H 135.28125 V 236.69617 H 0 Z"
               style="fill:none;stroke:#0c0c0c;stroke-width:1;stroke-linecap:butt;stroke-linejoin:miter;stroke-miterlimit:10;stroke-dasharray:none;stroke-opacity:1"
               id="path70" />
          </g>
        </g>
      </g>
      <g
         id="g72">
        <g
           id="g74"
           clip-path="url(#clipPath78)">
          <g
             id="g80"
             clip-path="url(#clipPath84)">
            <g
               id="g86"
               clip-path="url(#clipPath90)">
              <g
                 id="g92"
                 clip-path="url(#clipPath96)">
                <g
                   id="g98"
                   transform="matrix(-0.02052729,-1.0669717,-1.0669717,0.02052729,1471.6668,1549.0375)">
                  <path
                     d="m 109.8,60 c 0,3.269917 -0.31897,6.508415 -0.9569,9.715492 -0.63793,3.207085 -1.58256,6.321121 -2.8339,9.342125 -1.25135,3.021004 -2.78535,5.89093 -4.60203,8.609764 -1.816662,2.718842 -3.881085,5.234352 -6.193257,7.546532 -2.31218,2.312172 -4.82769,4.376595 -7.546532,6.193257 -2.718834,1.81668 -5.58876,3.35068 -8.609764,4.60203 -3.021004,1.25134 -6.13504,2.19597 -9.342125,2.8339 C 66.508415,109.48103 63.269917,109.8 60,109.8 c -3.269917,0 -6.508419,-0.31897 -9.7155,-0.9569 -3.207088,-0.63793 -6.321133,-1.58256 -9.342136,-2.8339 -3.021008,-1.25135 -5.890927,-2.78535 -8.609761,-4.60203 -2.718835,-1.816662 -5.234342,-3.881085 -7.54652,-6.193257 -2.312179,-2.31218 -4.376602,-4.82769 -6.19327,-7.546532 -1.816667,-2.718834 -3.350671,-5.58876 -4.602014,-8.609764 -1.251342,-3.021004 -2.195977,-6.13504 -2.833906,-9.342125 C 10.518964,66.508415 10.2,63.269917 10.200001,60 c -1e-6,-3.269917 0.318964,-6.508419 0.956893,-9.7155 0.637928,-3.207088 1.582563,-6.321133 2.833905,-9.342136 1.251343,-3.021008 2.785347,-5.890927 4.602014,-8.609761 1.816668,-2.718835 3.881091,-5.234342 6.19327,-7.54652 2.312178,-2.312179 4.827685,-4.376602 7.54652,-6.19327 2.718834,-1.816667 5.588753,-3.350671 8.609761,-4.602014 3.021003,-1.251342 6.135048,-2.195976 9.342136,-2.833905 3.207081,-0.637929 6.445583,-0.956893 9.7155,-0.956893 3.269917,0 6.508415,0.318964 9.715492,0.956893 3.207085,0.637929 6.321121,1.582563 9.342125,2.833905 3.021004,1.251343 5.89093,2.785347 8.609764,4.602014 2.718842,1.816668 5.234352,3.881091 7.546532,6.19327 2.312172,2.312178 4.376595,4.827685 6.193257,7.54652 1.81668,2.718834 3.35068,5.588753 4.60203,8.609761 1.25134,3.021003 2.19597,6.135048 2.8339,9.342136 0.63793,3.207081 0.9569,6.445583 0.9569,9.7155 z"
                     style="fill:#dddede;fill-opacity:1;fill-rule:nonzero;stroke:none"
                     id="path100" />
                  <path
                     d="m 82.5,71.599998 c -0.599998,0 -1.300003,-0.199996 -1.699997,-0.699996 L 60,54.5 39.200001,70.900002 c -0.5,0.400001 -1.099999,0.699996 -1.700001,0.699996 -0.799999,0 -1.400002,-0.300003 -1.900002,-0.900001 C 34.599998,69.599998 34.699997,68 35.799999,67 L 58.199997,49.099998 c 0.1,-0.1 0.1,-0.1 0.200001,-0.2 0.1,-0.1 0.2,-0.1 0.2,-0.200001 0.1,0 0.1,-0.1 0.200001,-0.1 0.1,0 0.200001,-0.1 0.200001,-0.1 0.1,0 0.200001,-0.1 0.200001,-0.1 0.1,0 0.200001,0 0.200001,-0.1 0.1,0 0.2,0 0.2,0 0.1,0 0.1,0 0.200001,0 0,0 0.1,0 0.1,0 0.1,0 0.1,0 0.2,0 0.1,0 0.200001,0 0.200001,0 0.1,0 0.200001,0 0.200001,0.1 0.1,0 0.200001,0.1 0.200001,0.1 0.1,0 0.2,0.1 0.2,0.1 0.1,0 0.1,0.1 0.200001,0.1 0.1,0 0.1,0.1 0.200001,0.200001 0.1,0.1 0.200001,0.1 0.200001,0.2 L 84.199997,67 c 0.599998,0.5 0.900001,1.199997 0.900001,1.900002 0,0.599998 -0.199996,1.300003 -0.699996,1.699996 -0.5,0.700005 -1.200005,1 -1.900002,1 z"
                     style="fill:#0c0c0c;fill-opacity:1;fill-rule:nonzero;stroke:none"
                     id="path102" />
                </g>
              </g>
            </g>
          </g>
        </g>
      </g>
      <g
         id="g104">
        <g
           id="g106"
           clip-path="url(#clipPath110)">
          <g
             id="g112"
             transform="matrix(0,-3.1196785,3.1196785,0,1406.1757,2193.5371)">
            <path
               d="M 0,0 H 135.28125 V 236.69617 H 0 Z"
               style="fill:none;stroke:#0c0c0c;stroke-width:1;stroke-linecap:butt;stroke-linejoin:miter;stroke-miterlimit:10;stroke-dasharray:none;stroke-opacity:1"
               id="path114" />
          </g>
        </g>
      </g>
      <g
         id="g116">
        <g
           id="g118"
           clip-path="url(#clipPath122)">
          <g
             id="g124"
             clip-path="url(#clipPath128)">
            <g
               id="g130"
               clip-path="url(#clipPath134)">
              <g
                 id="g136"
                 clip-path="url(#clipPath140)">
                <g
                   id="g142"
                   transform="matrix(-0.02052729,-1.0669717,-1.0669717,0.02052729,1471.6668,2048.3037)">
                  <path
                     d="m 109.8,60 c 0,3.269917 -0.31897,6.508415 -0.9569,9.715492 -0.63793,3.207085 -1.58256,6.321121 -2.8339,9.342125 -1.25135,3.021004 -2.78535,5.89093 -4.60203,8.609764 -1.816662,2.718842 -3.881085,5.234352 -6.193257,7.546532 -2.31218,2.312172 -4.82769,4.376595 -7.546532,6.193257 -2.718834,1.81668 -5.58876,3.35068 -8.609764,4.60203 -3.021004,1.25134 -6.13504,2.19597 -9.342125,2.8339 C 66.508415,109.48103 63.269917,109.8 60,109.8 c -3.269917,0 -6.508419,-0.31897 -9.7155,-0.9569 -3.207088,-0.63793 -6.321133,-1.58256 -9.342136,-2.8339 -3.021008,-1.25135 -5.890927,-2.78535 -8.609761,-4.60203 -2.718835,-1.816662 -5.234342,-3.881085 -7.54652,-6.193257 -2.312179,-2.31218 -4.376602,-4.82769 -6.19327,-7.546532 -1.816667,-2.718834 -3.350671,-5.58876 -4.602014,-8.609764 -1.251342,-3.021004 -2.195977,-6.13504 -2.833906,-9.342125 C 10.518964,66.508415 10.2,63.269917 10.200001,60 c -1e-6,-3.269917 0.318964,-6.508419 0.956893,-9.7155 0.637928,-3.207088 1.582563,-6.321133 2.833905,-9.342136 1.251343,-3.021008 2.785347,-5.890927 4.602014,-8.609761 1.816668,-2.718835 3.881091,-5.234342 6.19327,-7.54652 2.312178,-2.312179 4.827685,-4.376602 7.54652,-6.19327 2.718834,-1.816667 5.588753,-3.350671 8.609761,-4.602014 3.021003,-1.251342 6.135048,-2.195976 9.342136,-2.833905 3.207081,-0.637929 6.445583,-0.956893 9.7155,-0.956893 3.269917,0 6.508415,0.318964 9.715492,0.956893 3.207085,0.637929 6.321121,1.582563 9.342125,2.833905 3.021004,1.251343 5.89093,2.785347 8.609764,4.602014 2.718842,1.816668 5.234352,3.881091 7.546532,6.19327 2.312172,2.312178 4.376595,4.827685 6.193257,7.54652 1.81668,2.718834 3.35068,5.588753 4.60203,8.609761 1.25134,3.021003 2.19597,6.135048 2.8339,9.342136 0.63793,3.207081 0.9569,6.445583 0.9569,9.7155 z"
                     style="fill:#dddede;fill-opacity:1;fill-rule:nonzero;stroke:none"
                     id="path144" />
                  <path
                     d="m 82.5,71.599998 c -0.599998,0 -1.300003,-0.199996 -1.699997,-0.699996 L 60,54.5 39.200001,70.900002 c -0.5,0.400001 -1.099999,0.699996 -1.700001,0.699996 -0.799999,0 -1.400002,-0.300003 -1.900002,-0.900001 C 34.599998,69.599998 34.699997,68 35.799999,67 L 58.199997,49.099998 c 0.1,-0.1 0.1,-0.1 0.200001,-0.2 0.1,-0.1 0.2,-0.1 0.2,-0.200001 0.1,0 0.1,-0.1 0.200001,-0.1 0.1,0 0.200001,-0.1 0.200001,-0.1 0.1,0 0.200001,-0.1 0.200001,-0.1 0.1,0 0.200001,0 0.200001,-0.1 0.1,0 0.2,0 0.2,0 0.1,0 0.1,0 0.200001,0 0,0 0.1,0 0.1,0 0.1,0 0.1,0 0.2,0 0.1,0 0.200001,0 0.200001,0 0.1,0 0.200001,0 0.200001,0.1 0.1,0 0.200001,0.1 0.200001,0.1 0.1,0 0.2,0.1 0.2,0.1 0.1,0 0.1,0.1 0.200001,0.1 0.1,0 0.1,0.1 0.200001,0.200001 0.1,0.1 0.200001,0.1 0.200001,0.2 L 84.199997,67 c 0.599998,0.5 0.900001,1.199997 0.900001,1.900002 0,0.599998 -0.199996,1.300003 -0.699996,1.699996 -0.5,0.700005 -1.200005,1 -1.900002,1 z"
                     style="fill:#0c0c0c;fill-opacity:1;fill-rule:nonzero;stroke:none"
                     id="path146" />
                </g>
              </g>
            </g>
          </g>
        </g>
      </g>
      <g
         id="g148">
        <g
           id="g150"
           clip-path="url(#clipPath154)">
          <g
             id="g156"
             transform="matrix(0,-3.1196785,3.1196785,0,1406.1757,2692.5454)">
            <path
               d="M 0,0 H 135.28125 V 236.69617 H 0 Z"
               style="fill:none;stroke:#0c0c0c;stroke-width:1;stroke-linecap:butt;stroke-linejoin:miter;stroke-miterlimit:10;stroke-dasharray:none;stroke-opacity:1"
               id="path158" />
          </g>
        </g>
      </g>
      <g
         id="g160">
        <g
           id="g162"
           clip-path="url(#clipPath166)">
          <g
             id="g168"
             clip-path="url(#clipPath172)">
            <g
               id="g174"
               clip-path="url(#clipPath178)">
              <g
                 id="g180"
                 clip-path="url(#clipPath184)">
                <g
                   id="g186"
                   transform="matrix(-0.02052729,-1.0669717,-1.0669717,0.02052729,1471.6668,2547.3118)">
                  <path
                     d="m 109.8,60 c 0,3.269917 -0.31897,6.508415 -0.9569,9.715492 -0.63793,3.207085 -1.58256,6.321121 -2.8339,9.342125 -1.25135,3.021004 -2.78535,5.89093 -4.60203,8.609764 -1.816662,2.718842 -3.881085,5.234352 -6.193257,7.546532 -2.31218,2.312172 -4.82769,4.376595 -7.546532,6.193257 -2.718834,1.81668 -5.58876,3.35068 -8.609764,4.60203 -3.021004,1.25134 -6.13504,2.19597 -9.342125,2.8339 C 66.508415,109.48103 63.269917,109.8 60,109.8 c -3.269917,0 -6.508419,-0.31897 -9.7155,-0.9569 -3.207088,-0.63793 -6.321133,-1.58256 -9.342136,-2.8339 -3.021008,-1.25135 -5.890927,-2.78535 -8.609761,-4.60203 -2.718835,-1.816662 -5.234342,-3.881085 -7.54652,-6.193257 -2.312179,-2.31218 -4.376602,-4.82769 -6.19327,-7.546532 -1.816667,-2.718834 -3.350671,-5.58876 -4.602014,-8.609764 -1.251342,-3.021004 -2.195977,-6.13504 -2.833906,-9.342125 C 10.518964,66.508415 10.2,63.269917 10.200001,60 c -1e-6,-3.269917 0.318964,-6.508419 0.956893,-9.7155 0.637928,-3.207088 1.582563,-6.321133 2.833905,-9.342136 1.251343,-3.021008 2.785347,-5.890927 4.602014,-8.609761 1.816668,-2.718835 3.881091,-5.234342 6.19327,-7.54652 2.312178,-2.312179 4.827685,-4.376602 7.54652,-6.19327 2.718834,-1.816667 5.588753,-3.350671 8.609761,-4.602014 3.021003,-1.251342 6.135048,-2.195976 9.342136,-2.833905 3.207081,-0.637929 6.445583,-0.956893 9.7155,-0.956893 3.269917,0 6.508415,0.318964 9.715492,0.956893 3.207085,0.637929 6.321121,1.582563 9.342125,2.833905 3.021004,1.251343 5.89093,2.785347 8.609764,4.602014 2.718842,1.816668 5.234352,3.881091 7.546532,6.19327 2.312172,2.312178 4.376595,4.827685 6.193257,7.54652 1.81668,2.718834 3.35068,5.588753 4.60203,8.609761 1.25134,3.021003 2.19597,6.135048 2.8339,9.342136 0.63793,3.207081 0.9569,6.445583 0.9569,9.7155 z"
                     style="fill:#dddede;fill-opacity:1;fill-rule:nonzero;stroke:none"
                     id="path188" />
                  <path
                     d="m 82.5,71.599998 c -0.599998,0 -1.300003,-0.199996 -1.699997,-0.699996 L 60,54.5 39.200001,70.900002 c -0.5,0.400001 -1.099999,0.699996 -1.700001,0.699996 -0.799999,0 -1.400002,-0.300003 -1.900002,-0.900001 C 34.599998,69.599998 34.699997,68 35.799999,67 L 58.199997,49.099998 c 0.1,-0.1 0.1,-0.1 0.200001,-0.2 0.1,-0.1 0.2,-0.1 0.2,-0.200001 0.1,0 0.1,-0.1 0.200001,-0.1 0.1,0 0.200001,-0.1 0.200001,-0.1 0.1,0 0.200001,-0.1 0.200001,-0.1 0.1,0 0.200001,0 0.200001,-0.1 0.1,0 0.2,0 0.2,0 0.1,0 0.1,0 0.200001,0 0,0 0.1,0 0.1,0 0.1,0 0.1,0 0.2,0 0.1,0 0.200001,0 0.200001,0 0.1,0 0.200001,0 0.200001,0.1 0.1,0 0.200001,0.1 0.200001,0.1 0.1,0 0.2,0.1 0.2,0.1 0.1,0 0.1,0.1 0.200001,0.1 0.1,0 0.1,0.1 0.200001,0.200001 0.1,0.1 0.200001,0.1 0.200001,0.2 L 84.199997,67 c 0.599998,0.5 0.900001,1.199997 0.900001,1.900002 0,0.599998 -0.199996,1.300003 -0.699996,1.699996 -0.5,0.700005 -1.200005,1 -1.900002,1 z"
                     style="fill:#0c0c0c;fill-opacity:1;fill-rule:nonzero;stroke:none"
                     id="path190" />
                </g>
              </g>
            </g>
          </g>
        </g>
      </g>
      <g
         id="g192">
        <g
           id="g194"
           clip-path="url(#clipPath198)">
          <g
             id="g200"
             transform="matrix(0,-3.1196785,3.1196785,0,1406.1757,3191.5532)">
            <path
               d="M 0,0 H 135.28125 V 236.69617 H 0 Z"
               style="fill:none;stroke:#0c0c0c;stroke-width:1;stroke-linecap:butt;stroke-linejoin:miter;stroke-miterlimit:10;stroke-dasharray:none;stroke-opacity:1"
               id="path202" />
          </g>
        </g>
      </g>
      <g
         id="g204">
        <g
           id="g206"
           clip-path="url(#clipPath210)">
          <g
             id="g212"
             clip-path="url(#clipPath216)">
            <g
               id="g218"
               clip-path="url(#clipPath222)">
              <g
                 id="g224"
                 clip-path="url(#clipPath228)">
                <g
                   id="g230"
                   transform="matrix(-0.02052729,-1.0669717,-1.0669717,0.02052729,1471.6668,3046.3198)">
                  <path
                     d="m 109.8,60 c 0,3.269917 -0.31897,6.508415 -0.9569,9.715492 -0.63793,3.207085 -1.58256,6.321121 -2.8339,9.342125 -1.25135,3.021004 -2.78535,5.89093 -4.60203,8.609764 -1.816662,2.718842 -3.881085,5.234352 -6.193257,7.546532 -2.31218,2.312172 -4.82769,4.376595 -7.546532,6.193257 -2.718834,1.81668 -5.58876,3.35068 -8.609764,4.60203 -3.021004,1.25134 -6.13504,2.19597 -9.342125,2.8339 C 66.508415,109.48103 63.269917,109.8 60,109.8 c -3.269917,0 -6.508419,-0.31897 -9.7155,-0.9569 -3.207088,-0.63793 -6.321133,-1.58256 -9.342136,-2.8339 -3.021008,-1.25135 -5.890927,-2.78535 -8.609761,-4.60203 -2.718835,-1.816662 -5.234342,-3.881085 -7.54652,-6.193257 -2.312179,-2.31218 -4.376602,-4.82769 -6.19327,-7.546532 -1.816667,-2.718834 -3.350671,-5.58876 -4.602014,-8.609764 -1.251342,-3.021004 -2.195977,-6.13504 -2.833906,-9.342125 C 10.518964,66.508415 10.2,63.269917 10.200001,60 c -1e-6,-3.269917 0.318964,-6.508419 0.956893,-9.7155 0.637928,-3.207088 1.582563,-6.321133 2.833905,-9.342136 1.251343,-3.021008 2.785347,-5.890927 4.602014,-8.609761 1.816668,-2.718835 3.881091,-5.234342 6.19327,-7.54652 2.312178,-2.312179 4.827685,-4.376602 7.54652,-6.19327 2.718834,-1.816667 5.588753,-3.350671 8.609761,-4.602014 3.021003,-1.251342 6.135048,-2.195976 9.342136,-2.833905 3.207081,-0.637929 6.445583,-0.956893 9.7155,-0.956893 3.269917,0 6.508415,0.318964 9.715492,0.956893 3.207085,0.637929 6.321121,1.582563 9.342125,2.833905 3.021004,1.251343 5.89093,2.785347 8.609764,4.602014 2.718842,1.816668 5.234352,3.881091 7.546532,6.19327 2.312172,2.312178 4.376595,4.827685 6.193257,7.54652 1.81668,2.718834 3.35068,5.588753 4.60203,8.609761 1.25134,3.021003 2.19597,6.135048 2.8339,9.342136 0.63793,3.207081 0.9569,6.445583 0.9569,9.7155 z"
                     style="fill:#dddede;fill-opacity:1;fill-rule:nonzero;stroke:none"
                     id="path232" />
                  <path
                     d="m 82.5,71.599998 c -0.599998,0 -1.300003,-0.199996 -1.699997,-0.699996 L 60,54.5 39.200001,70.900002 c -0.5,0.400001 -1.099999,0.699996 -1.700001,0.699996 -0.799999,0 -1.400002,-0.300003 -1.900002,-0.900001 C 34.599998,69.599998 34.699997,68 35.799999,67 L 58.199997,49.099998 c 0.1,-0.1 0.1,-0.1 0.200001,-0.2 0.1,-0.1 0.2,-0.1 0.2,-0.200001 0.1,0 0.1,-0.1 0.200001,-0.1 0.1,0 0.200001,-0.1 0.200001,-0.1 0.1,0 0.200001,-0.1 0.200001,-0.1 0.1,0 0.200001,0 0.200001,-0.1 0.1,0 0.2,0 0.2,0 0.1,0 0.1,0 0.200001,0 0,0 0.1,0 0.1,0 0.1,0 0.1,0 0.2,0 0.1,0 0.200001,0 0.200001,0 0.1,0 0.200001,0 0.200001,0.1 0.1,0 0.200001,0.1 0.200001,0.1 0.1,0 0.2,0.1 0.2,0.1 0.1,0 0.1,0.1 0.200001,0.1 0.1,0 0.1,0.1 0.200001,0.200001 0.1,0.1 0.200001,0.1 0.200001,0.2 L 84.199997,67 c 0.599998,0.5 0.900001,1.199997 0.900001,1.900002 0,0.599998 -0.199996,1.300003 -0.699996,1.699996 -0.5,0.700005 -1.200005,1 -1.900002,1 z"
                     style="fill:#0c0c0c;fill-opacity:1;fill-rule:nonzero;stroke:none"
                     id="path234" />
                </g>
              </g>
            </g>
          </g>
        </g>
      </g>
    </g>
    <path
       d="M -21.354424,768.09064 H 366.30491 v 4.5 H -21.354424 Z"
       style="fill:#000000;fill-opacity:0;fill-rule:nonzero;stroke:none"
       id="path236" />
    <path
       d="m 324.30054,480.1582 h 26.10579 v 26.10579 h -26.10579 z"
       style="fill:#000000;fill-opacity:0;fill-rule:nonzero;stroke:none"
       id="path238" />
    <path
       d="m 324.30054,360.37946 h 26.10579 v 26.10579 h -26.10579 z"
       style="fill:#000000;fill-opacity:0;fill-rule:nonzero;stroke:none"
       id="path240" />
    <path
       d="m 324.30054,240.66267 h 26.10579 v 26.10579 h -26.10579 z"
       style="fill:#000000;fill-opacity:0;fill-rule:nonzero;stroke:none"
       id="path242" />
    <path
       d="m 324.30054,120.94588 h 26.10579 v 26.10579 h -26.10579 z"
       style="fill:#000000;fill-opacity:0;fill-rule:nonzero;stroke:none"
       id="path244" />
  </g>
</svg>
