<?xml version="1.0" encoding="UTF-8" standalone="no"?>
<!-- Created with Inkscape (http://www.inkscape.org/) -->

<svg
   version="1.1"
   id="svg2"
   width="794.66669"
   height="1122.6667"
   viewBox="0 0 794.66669 1122.6667"
   xmlns="http://www.w3.org/2000/svg"
   xmlns:svg="http://www.w3.org/2000/svg">
  <defs
     id="defs6">
    <clipPath
       clipPathUnits="userSpaceOnUse"
       id="clipPath22">
      <path
         d="M -1,646.63129 H 554.79919 V 843 H -1 Z"
         clip-rule="evenodd"
         id="path20" />
    </clipPath>
    <clipPath
       clipPathUnits="userSpaceOnUse"
       id="clipPath64">
      <path
         d="m 389.55325,542.03448 h 29.26102 v 29.26251 h -29.26102 z"
         clip-rule="evenodd"
         id="path62" />
    </clipPath>
    <clipPath
       clipPathUnits="userSpaceOnUse"
       id="clipPath76">
      <path
         d="m 45.176437,722.68311 h 14.255371 v 19.50836 H 45.176437 Z"
         clip-rule="evenodd"
         id="path74" />
    </clipPath>
    <clipPath
       clipPathUnits="userSpaceOnUse"
       id="clipPath92">
      <path
         d="M 41.451092,752.46167 H 63.20929 v 16.50708 H 41.451092 Z"
         clip-rule="evenodd"
         id="path90" />
    </clipPath>
    <clipPath
       clipPathUnits="userSpaceOnUse"
       id="clipPath104">
      <path
         d="M 41.451092,779.60736 H 63.20929 v 21.75928 H 41.451092 Z"
         clip-rule="evenodd"
         id="path102" />
    </clipPath>
  </defs>
  <g
     id="g8"
     transform="matrix(1.3333333,0,0,-1.3333333,0,1122.6667)">
    <g
       id="g10"
       transform="matrix(1,0,0,-1,0,842)">
      <g
         id="g12"
         transform="scale(0.7502827,0.75032091)">
        <path
           d="M 0,0 H 793.70081 V 1122.5197 H 0 Z"
           style="fill:#ffffff;fill-opacity:1;fill-rule:nonzero;stroke:none"
           id="path14" />
      </g>
      <g
         id="g16">
        <g
           id="g18"
           clip-path="url(#clipPath22)">
          <g
             id="g24"
             transform="matrix(2.7914062,0,0,2.7915483,-23.768217,646.63129)">
            <path
               d="M 4.0317459,0 H 203.23561 c 1.06929,0 2.09477,0.42477202 2.85088,1.1808711 0.7561,0.756099 1.18087,1.7815894 1.18087,2.8508748 V 73.167213 c 0,1.069283 -0.42477,2.094773 -1.18087,2.850876 -0.75611,0.756096 -1.78159,1.18087 -2.85088,1.18087 H 4.0317459 c -1.0692854,0 -2.0947758,-0.424774 -2.8508748,-1.18087 C 0.42477202,75.261986 0,74.236496 0,73.167213 V 4.0317459 C 0,2.9624605 0.42477202,1.9369701 1.1808711,1.1808711 1.9369701,0.42477202 2.9624605,0 4.0317459,0 Z"
               style="fill:#3d4d4e;fill-opacity:1;fill-rule:nonzero;stroke:none"
               id="path26" />
          </g>
        </g>
      </g>
      <g
         id="g28"
         transform="matrix(0.87967426,0,0,0.87971908,39.814156,448.80878)">
        <text
           xml:space="preserve"
           transform="translate(0,75.866669)"
           style="font-variant:normal;font-weight:600;font-stretch:normal;font-size:1e-32px;font-family:'Cy Grotesk';-inkscape-font-specification:Arial;writing-mode:lr-tb;fill:#3d4d4e;fill-opacity:1;fill-rule:nonzero;stroke:none"
           id="text32"><tspan
             x="0 45.237"
             y="0"
             id="tspan30">Le</tspan></text>
        <text
           xml:space="preserve"
           transform="translate(93.335145,75.866669)"
           style="font-variant:normal;font-weight:600;font-stretch:normal;font-size:1e-32px;font-family:'Cy Grotesk';-inkscape-font-specification:Arial;writing-mode:lr-tb;fill:#3d4d4e;fill-opacity:1;fill-rule:nonzero;stroke:none"
           id="text36"><tspan
             x="0"
             y="0"
             id="tspan34">t</tspan></text>
        <text
           xml:space="preserve"
           transform="translate(132.46321,75.866669)"
           style="font-variant:normal;font-weight:600;font-stretch:normal;font-size:1e-32px;font-family:'Cy Grotesk';-inkscape-font-specification:Arial;writing-mode:lr-tb;fill:#3d4d4e;fill-opacity:1;fill-rule:nonzero;stroke:none"
           id="text40"><tspan
             x="0"
             y="0"
             id="tspan38">’</tspan></text>
        <text
           xml:space="preserve"
           transform="translate(153.10985,75.866669)"
           style="font-variant:normal;font-weight:600;font-stretch:normal;font-size:1e-32px;font-family:'Cy Grotesk';-inkscape-font-specification:Arial;writing-mode:lr-tb;fill:#3d4d4e;fill-opacity:1;fill-rule:nonzero;stroke:none"
           id="text44"><tspan
             x="0 45.778305 69.131424 148.08351 196.95494 230.74736"
             y="0"
             id="tspan42">s Work</tspan></text>
        <text
           xml:space="preserve"
           transform="translate(0,160.86667)"
           style="font-variant:normal;font-weight:600;font-stretch:normal;font-size:1e-32px;font-family:'Cy Grotesk';-inkscape-font-specification:Arial;writing-mode:lr-tb;fill:#3d4d4e;fill-opacity:1;fill-rule:nonzero;stroke:none"
           id="text48"><tspan
             x="0 53.665771 102.5372 151.09932"
             y="0"
             id="tspan46">Toge</tspan></text>
        <text
           xml:space="preserve"
           transform="translate(199.19746,160.86667)"
           style="font-variant:normal;font-weight:600;font-stretch:normal;font-size:1e-32px;font-family:'Cy Grotesk';-inkscape-font-specification:Arial;writing-mode:lr-tb;fill:#3d4d4e;fill-opacity:1;fill-rule:nonzero;stroke:none"
           id="text52"><tspan
             x="0"
             y="0"
             id="tspan50">t</tspan></text>
        <text
           xml:space="preserve"
           transform="translate(238.32553,160.86667)"
           style="font-variant:normal;font-weight:600;font-stretch:normal;font-size:1e-32px;font-family:'Cy Grotesk';-inkscape-font-specification:Arial;writing-mode:lr-tb;fill:#3d4d4e;fill-opacity:1;fill-rule:nonzero;stroke:none"
           id="text56"><tspan
             x="0 49.567383 97.665527"
             y="0"
             id="tspan54">her</tspan></text>
      </g>
      <g
         id="g58">
        <g
           id="g60"
           clip-path="url(#clipPath64)">
          <g
             id="g66"
             transform="matrix(0.06990211,0,0,0.06990211,389.55325,542.03522)">
            <path
               d="M 418.58929,0 V 418.17719 H 334.8912 V 142.87869 L 59.183998,418.58588 0,359.40189 275.70929,83.698097 H 0.41209999 l 0,-83.698097 z"
               style="fill:#3d4d4e;fill-opacity:1;fill-rule:nonzero;stroke:none"
               id="path68" />
          </g>
        </g>
      </g>
      <g
         id="g70">
        <g
           id="g72"
           clip-path="url(#clipPath76)">
          <g
             id="g78"
             transform="matrix(0.19002184,0,0,0.18958546,45.254311,722.77789)">
            <path
               d="m 21.547001,0.091 c 0,0 -21.827001,0.28699999 -21.544001,20.059 0.28300001,19.772001 4.253,37.254999 10.773,46.998003 6.52,9.742996 23.242002,35.247997 42.235997,32.669998 0,0 9.355004,-2.007004 16.440006,-6.593003 l -22.960002,-18.054 c 0,0 -6.803002,4.299003 -11.055001,-1.432999 -4.252002,-5.732002 -17.575,-32.381001 -17.575,-32.381001 0,0 -3.685,-8.597999 4.536001,-12.323 z"
               style="fill:#ffffff;fill-opacity:1;fill-rule:nonzero;stroke:none"
               id="path80" />
            <path
               d="m 24.099001,0.091 c 0,0 1.700998,-0.57099999 4.817999,1.147 3.117,1.7180001 3.118,3.15 3.118,3.15 l 0.284,19.775 c 0,0 -0.851,1.147001 -1.984001,2.291 C 29.201,27.6 25.516001,29.320999 24.947998,28.174 24.382999,27.028999 24.099001,0.091 24.099001,0.091 Z"
               style="fill:#ffffff;fill-opacity:1;fill-rule:nonzero;stroke:none"
               id="path82" />
            <path
               d="m 48.401005,73.057999 6.311996,-3.332001 c 0,0 1.417,-0.284996 3.683998,1.146004 2.268002,1.435997 14.174,10.892997 14.174,10.892997 0,0 1.984001,1.719002 1.417,3.724999 -0.567001,2.005997 -1.984001,6.305 -1.984001,6.305 z"
               style="fill:#ffffff;fill-opacity:1;fill-rule:nonzero;stroke:none"
               id="path84" />
          </g>
        </g>
      </g>
      <g
         id="g86">
        <g
           id="g88"
           clip-path="url(#clipPath92)">
          <g
             id="g94"
             transform="matrix(0.03157939,0,0,0.0319888,41.451092,752.45886)">
            <path
               d="M 634.94,516 H 53.389999 C 48.976665,515.4267 45.763332,514.92999 43.75,514.51001 25.120001,510.59 9.6599998,496 3.45,478.57999 1.59,473.37 0.89999998,467.91998 0,462.39001 V 52.880001 c 0.97000003,-2.630001 0.89999998,-5.59 1.4400001,-7.830002 0.74,-3.059997 1.49,-6.479999 2.71,-9.319999 C 12.003334,17.356667 25.709999,6.0033336 45.27,1.67 47.07,1.27 48.873337,1.03 50.680004,0.94999999 53.110001,0.85000002 55.479996,0.28 57.939999,0.28 247.40001,0.1933333 438.88333,0.1933333 632.39001,0.28 c 1.47999,0 2.94666,0.10666666 4.39997,0.32000002 1.44671,0.22000003 2.90338,0.42666658 4.36999,0.61999998 5.06671,0.6666668 9.5434,1.8699999 13.43006,3.6099999 18.51996,8.2600011 32.19,25.6600001 33.54998,46.3799991 0.21998,3.360001 0.56006,6.630001 0.53998,9.959999 C 687.90002,164 688.33002,266.91 688.34003,377 c 0,23.57999 0.62005,48.38998 0.28997,73.23001 -0.10003,7.65335 -0.27667,12.83334 -0.53002,15.54001 -1.53333,16.27331 -9.21332,29.53662 -23.03998,39.78995 -6.58667,4.88003 -13.94666,7.98001 -22.08002,9.30002 -2.67334,0.43334 -5.35333,0.81335 -8.03998,1.14001 z M 334.10001,310.29999 c 8.75,3.31 19.01999,1.16 25.80999,-5.15998 60.01999,-55.88668 119.69666,-111.20333 179.03,-165.95001 34.27332,-31.62 68.25,-63.079999 101.93,-94.380002 0.52001,-0.48 0.53668,-0.979996 0.05,-1.499997 -0.76668,-0.806667 -1.90663,-1.210003 -3.42,-1.210003 C 440.97333,42.033333 246.82999,42 55.07,42 c -3.759999,0 -5.910004,0.869999 -8.449997,3.299999 -0.366669,0.353337 -0.360005,0.700001 0.02,1.040001 2.053334,1.799999 4.106667,3.636665 6.16,5.509998 C 75.673332,72.75 101.32666,96.463333 129.75999,122.99 190.8,179.93668 250.04001,234.98999 307.48001,288.14999 c 5.10001,4.72001 10.33667,9.55668 15.70999,14.51001 4.30667,3.97333 7.94333,6.51999 10.91001,7.63999 z M 645.83002,99.419998 c 0,-0.140007 -0.07,-0.263336 -0.21002,-0.369995 -0.12415,-0.101402 -0.30127,-0.105522 -0.43,-0.01 -4.72998,3.650007 -8.53003,7.939997 -13.03003,12.129997 -48.74664,45.28666 -98.75665,91.93999 -150.02997,139.96 -0.48666,0.46666 -1.00332,0.87999 -1.55001,1.24 -0.78,0.52667 -0.81,1.09667 -0.09,1.71 1.7067,1.44667 3.21668,2.78667 4.53,4.02001 27.72,25.97332 57.55667,54.08999 89.51004,84.35 6.17999,5.84665 11.60663,11.06665 16.27997,15.66001 5.08001,4.98999 10.47998,9.70999 15.54999,14.68997 3.96667,3.89334 7.84668,7.56335 11.64001,11.01001 6.32001,5.72 12.09998,11.75003 18.45001,17.48999 3.00666,2.71332 5.91999,5.53665 8.73999,8.47 0.10578,0.11706 0.26514,0.1702 0.41999,0.13998 C 645.87,409.86331 646,409.74332 646,409.54999 646.007,306.34332 646,203.17667 645.98,100.05 c 0,-0.133336 -0.03,-0.260007 -0.09,-0.380002 -0.04,-0.07333 -0.06,-0.156669 -0.06,-0.25 z M 43.549999,409.92001 c 4.26667,-4.25998 8.886673,-8.75665 13.860005,-13.48999 44.593336,-42.41336 88.633326,-84.47003 132.119976,-126.17001 4.94667,-4.74667 10.15003,-9.66 15.61003,-14.74001 1.06667,-0.98666 1.05999,-1.96666 -0.02,-2.94 -2.10001,-1.90668 -4.09334,-3.74335 -5.98,-5.50999 C 146.60001,197.87 97.130005,151.78332 50.73,108.81 c -2.779999,-2.57334 -5.439999,-5.05333 -7.98,-7.44 -0.113331,-0.10666 -0.169998,-0.10666 -0.169998,0 l -0.200001,308.05996 c 0,1.10669 0.389999,1.27005 1.169998,0.49005 z M 346.5,354.89999 C 325.60999,355.85001 308.76001,348.28 293.48001,333.89001 279.57333,320.80334 262.41,304.72668 241.99001,285.66 c -0.86001,-0.80001 -1.78667,-1.57669 -2.78,-2.33001 -0.5869,-0.43442 -1.39728,-0.39243 -1.93003,0.1 C 234.71002,285.76001 232.28,288.38 229.79001,290.75 176.53,341.62332 123.77667,392.13666 71.529999,442.29001 64.93,448.63 59.046669,454.16 53.880001,458.88 c -2.913334,2.66666 -5.66,5.29667 -8.240005,7.88999 -0.693333,0.70001 -0.703331,1.41 -0.02999,2.13 C 49.740007,473.29996 53.380002,473 60.05,473 c 190.98001,0 381.95999,0 572.93999,0 4.71002,0 7.32001,-0.47 9.83002,-4.28003 0.58001,-0.88663 0.48663,-1.68997 -0.28003,-2.41 C 581,408.09 519.47998,349.80667 457.98004,291.45999 c -3.4267,-3.25332 -6.33005,-6.18667 -8.71002,-8.79999 -0.30176,-0.32992 -0.72253,-0.52597 -1.16922,-0.54474 -0.44672,-0.0188 -0.88245,0.1413 -1.21079,0.44474 -17.34002,16.03 -34.55004,32.29001 -51.74002,48.45001 -6.59332,6.19998 -11.69665,10.46664 -15.31002,12.79999 -10.63999,6.86667 -21.7533,10.56332 -33.33997,11.08999 z"
               style="fill:#ffffff;fill-opacity:1;fill-rule:nonzero;stroke:none"
               id="path96" />
          </g>
        </g>
      </g>
      <g
         id="g98">
        <g
           id="g100"
           clip-path="url(#clipPath104)">
          <g
             id="g106"
             transform="matrix(0.04532958,0,0,0.04532958,40.725819,778.88263)">
            <path
               d="M 425.70575,86.294258 C 380.3754,40.964439 320.10629,15.999931 256.00003,15.999931 191.89377,15.999931 131.62468,40.964439 86.294327,86.29425 40.964512,131.6246 16,191.89371 16,255.99998 c 0,64.10625 24.964512,124.37529 70.294327,169.70571 45.330353,45.3298 105.599443,70.29434 169.705703,70.29434 64.10626,0 124.37534,-24.96454 169.70572,-70.29434 C 471.03549,380.37527 496,320.10623 496,255.99998 496,191.89371 471.03549,131.62462 425.70575,86.294258 Z M 42.54528,255.99998 c 0,-26.72979 4.953,-52.3207 13.965607,-75.92234 h 86.327373 c -3.87139,24.15432 -5.89231,49.72485 -5.89231,75.92234 0,25.31832 1.88144,50.05584 5.50218,73.49096 H 55.584808 C 47.152641,306.56808 42.54528,281.81219 42.54528,255.99998 Z m 120.94595,0 c 0,-26.36706 2.14027,-51.97702 6.23079,-75.92234 h 73.00538 v 149.4133 h -73.41772 c -3.82413,-23.24372 -5.81845,-48.01557 -5.81845,-73.49096 z M 318.77072,101.29133 c 7.27966,15.6026 13.31427,33.20325 18.0044,52.24102 H 269.27267 V 45.004601 c 17.99552,6.599258 35.5084,26.3013 49.49805,56.286729 z M 242.7274,45.004601 V 153.53235 h -67.50244 c 4.69012,-19.03777 10.72473,-36.63842 18.00439,-52.24102 13.98964,-29.985429 31.50254,-49.687479 49.49805,-56.286729 z m 0,311.031619 v 110.95911 c -17.99551,-6.59924 -35.50841,-26.30127 -49.49805,-56.28671 -7.58825,-16.26389 -13.82119,-34.70142 -18.59085,-54.6724 z m 26.54527,110.95911 V 356.03622 h 68.0889 c -4.76965,19.97098 -11.00259,38.40851 -18.59085,54.6724 -13.98965,29.98544 -31.50253,49.68747 -49.49805,56.28671 z m 0,-137.50439 v -149.4133 h 73.00538 c 4.09051,23.94532 6.2308,49.55528 6.2308,75.92234 0,25.47539 -1.99432,50.24724 -5.81845,73.49096 z m 99.88916,-149.4133 h 86.32737 c 9.0126,23.60164 13.96551,49.19255 13.96551,75.92234 0,25.81221 -4.60724,50.5681 -13.03943,73.49096 h -86.86334 c 3.62073,-23.43512 5.5022,-48.17264 5.5022,-73.49096 0,-26.19749 -2.02094,-51.76802 -5.89231,-75.92234 z m 74.04123,-26.54529 H 364.02762 C 358.73694,130.35194 351.62173,108.91812 342.82684,90.067688 336.00595,75.448334 328.38071,62.8503 320.12054,52.390591 372.94016,69.061111 416.94797,105.75678 443.20306,153.53235 Z M 191.87953,52.390591 c -8.26015,10.459709 -15.8854,23.057743 -22.7063,37.677097 -8.79487,18.850432 -15.91011,40.284252 -21.20079,63.464662 H 68.797028 C 95.052094,105.75678 139.05997,69.061119 191.87956,52.390591 Z M 67.487167,356.03622 h 79.930103 c 5.34292,24.11676 12.65359,46.38645 21.75598,65.89603 6.82089,14.61936 14.44613,27.21738 22.70631,37.67709 C 138.16832,442.65741 93.57325,404.99594 67.487167,356.03622 Z M 320.12054,459.60934 c 8.26017,-10.45971 15.88541,-23.05773 22.7063,-37.67709 9.10239,-19.50958 16.41306,-41.77927 21.75598,-65.89603 h 79.93009 c -26.08606,48.95972 -70.68115,86.62119 -124.39237,103.57312 z"
               style="fill:#ffffff;fill-opacity:1;fill-rule:nonzero;stroke:none"
               id="path108" />
          </g>
        </g>
      </g>
      <g
         id="g110"
         transform="matrix(0.7502827,0,0,0.75032091,40.700809,682.16577)">
        <text
           xml:space="preserve"
           transform="translate(0,28.5)"
           style="font-variant:normal;font-weight:bold;font-size:30px;font-family:PublicSans;-inkscape-font-specification:PublicSans-Bold;writing-mode:lr-tb;fill:#ffffff;fill-opacity:1;fill-rule:nonzero;stroke:none"
           id="text114"><tspan
             x="0 21.540146 38.61026 56.400391 69.075485 86.280609 102.48073 115.15582 121.51587 143.23602"
             y="0"
             id="tspan112">Contact Us</tspan></text>
      </g>
    </g>
    <path
       d="m 389.40646,271.13104 h 28.95604 v 28.95604 h -28.95604 z"
       style="fill:#000000;fill-opacity:0;fill-rule:nonzero;stroke:none"
       id="path116" />
    <path
       d="m 45.159412,100.38639 h 13.947045 v 19.12936 H 45.159412 Z"
       style="fill:#000000;fill-opacity:0;fill-rule:nonzero;stroke:none"
       id="path118" />
    <path
       d="m 41.435474,73.326004 h 21.93043 v 16.42395 h -21.93043 z"
       style="fill:#000000;fill-opacity:0;fill-rule:nonzero;stroke:none"
       id="path120" />
    <path
       d="m 41.435474,40.685474 h 21.93043 v 21.93043 h -21.93043 z"
       style="fill:#000000;fill-opacity:0;fill-rule:nonzero;stroke:none"
       id="path122" />
  </g>
</svg>
