<!DOCTYPE svg PUBLIC "-//W3C//DTD SVG 1.1//EN" "http://www.w3.org/Graphics/SVG/1.1/DTD/svg11.dtd">
<!-- Uploaded to: SVG Repo, www.svgrepo.com, Transformed by: SVG Repo Mixer Tools -->
<svg fill="#000000" height="256px" width="256px" version="1.1" id="Layer_1" xmlns="http://www.w3.org/2000/svg" xmlns:xlink="http://www.w3.org/1999/xlink" viewBox="0 0 512.00 512.00" xml:space="preserve" transform="matrix(1, 0, 0, 1, 0, 0)" stroke="#000000" stroke-width="5.12">
<g id="SVGRepo_bgCarrier" stroke-width="0"/>
<g id="SVGRepo_tracerCarrier" stroke-linecap="round" stroke-linejoin="round" stroke="#CCCCCC" stroke-width="23.552"> <g> <g> <path d="M501.801,0H10.199C4.566,0,0,4.567,0,10.199v491.602C0,507.433,4.566,512,10.199,512h491.602 c5.632,0,10.199-4.567,10.199-10.199V10.199C512,4.567,507.433,0,501.801,0z M163.86,491.602H20.398V20.398H163.86V491.602z M491.602,491.602H184.259V266.199h307.343V491.602z M491.602,245.801H184.259V20.398h307.343V245.801z"/> </g> </g> <g> <g> <path d="M45.896,303.936c-5.633,0-10.199,4.567-10.199,10.199v155.028c0,5.632,4.566,10.199,10.199,10.199 c5.633,0,10.199-4.567,10.199-10.199V314.135C56.096,308.503,51.529,303.936,45.896,303.936z"/> </g> </g> <g> <g> <path d="M45.896,268.239c-5.633,0-10.199,4.567-10.199,10.199v2.04c0,5.632,4.566,10.199,10.199,10.199 c5.633,0,10.199-4.567,10.199-10.199v-2.04C56.096,272.806,51.529,268.239,45.896,268.239z"/> </g> </g> </g>
<g id="SVGRepo_iconCarrier"> <g> <g> <path d="M501.801,0H10.199C4.566,0,0,4.567,0,10.199v491.602C0,507.433,4.566,512,10.199,512h491.602 c5.632,0,10.199-4.567,10.199-10.199V10.199C512,4.567,507.433,0,501.801,0z M163.86,491.602H20.398V20.398H163.86V491.602z M491.602,491.602H184.259V266.199h307.343V491.602z M491.602,245.801H184.259V20.398h307.343V245.801z"/> </g> </g> <g> <g> <path d="M45.896,303.936c-5.633,0-10.199,4.567-10.199,10.199v155.028c0,5.632,4.566,10.199,10.199,10.199 c5.633,0,10.199-4.567,10.199-10.199V314.135C56.096,308.503,51.529,303.936,45.896,303.936z"/> </g> </g> <g> <g> <path d="M45.896,268.239c-5.633,0-10.199,4.567-10.199,10.199v2.04c0,5.632,4.566,10.199,10.199,10.199 c5.633,0,10.199-4.567,10.199-10.199v-2.04C56.096,272.806,51.529,268.239,45.896,268.239z"/> </g> </g> </g>
</svg>