<!DOCTYPE svg PUBLIC "-//W3C//DTD SVG 1.1//EN" "http://www.w3.org/Graphics/SVG/1.1/DTD/svg11.dtd">
<!-- Uploaded to: SVG Repo, www.svgrepo.com, Transformed by: SVG Repo Mixer Tools -->
<svg fill="#000000" width="256px" height="256px" viewBox="0 0 32 32" xmlns="http://www.w3.org/2000/svg">
<g id="SVGRepo_bgCarrier" stroke-width="0"/>
<g id="SVGRepo_tracerCarrier" stroke-linecap="round" stroke-linejoin="round"/>
<g id="SVGRepo_iconCarrier"> <title/> <g data-name="Layer 2" id="Layer_2"> <path d="M30.87,14.23,26,22.67V8l3.77,2.18A3,3,0,0,1,30.87,14.23Z"/> <path d="M6,8.26V22.34l-4.6-8a3,3,0,0,1,1.1-4.1Z"/> <path d="M21,4H11A3,3,0,0,0,8,7V25a3,3,0,0,0,3,3H21a3,3,0,0,0,3-3V7A3,3,0,0,0,21,4ZM13,8a1,1,0,1,1-1,1A1,1,0,0,1,13,8Zm6,16a1,1,0,1,1,1-1A1,1,0,0,1,19,24Zm-3-4a4,4,0,1,1,4-4A4,4,0,0,1,16,20Z"/> <circle cx="16" cy="16" r="2"/> </g> </g>
</svg>