<?xml version="1.0" encoding="UTF-8"?>
<svg version="1.1" xmlns="http://www.w3.org/2000/svg" width="1024" height="1024">
<path d="M0 0 C1.60880143 1.22080832 3.2182184 2.44080572 4.828125 3.66015625 C8.42693588 6.39244948 12.01613654 9.13689287 15.6015625 11.88671875 C20.52412545 15.65190905 25.49899908 19.33992333 30.5 23 C38.12762718 28.58630759 45.65645293 34.29276896 53.1640625 40.0390625 C58.89902727 44.42064326 64.67759563 48.73542958 70.5 53 C78.12740017 58.5866242 85.65644565 64.29276338 93.1640625 70.0390625 C98.89902727 74.42064326 104.67759563 78.73542958 110.5 83 C118.12740017 88.5866242 125.65644565 94.29276338 133.1640625 100.0390625 C138.89902727 104.42064326 144.67759563 108.73542958 150.5 113 C158.12740017 118.5866242 165.65644565 124.29276338 173.1640625 130.0390625 C178.89902727 134.42064326 184.67759563 138.73542958 190.5 143 C198.1214867 148.58229293 205.64505411 154.28354788 213.14648438 160.02587891 C219.05251205 164.53858315 225.00581211 168.9801866 231 173.375 C238.41678156 178.81483588 245.74755987 184.34270039 253 190 C253.90234375 190.68449219 254.8046875 191.36898437 255.734375 192.07421875 C271.72328531 204.40506019 271.72328531 204.40506019 272.9921875 213.82421875 C273.01660982 220.62583461 269.97631317 224.36326095 265.5 229.125 C259.28814066 235.21553811 252.21008403 240.19499371 245.1640625 245.26171875 C239.86414732 249.07374377 234.6783279 253.02509981 229.5 257 C222.11446018 262.65465978 214.66803084 268.21471989 207.1640625 273.7109375 C201.22328567 278.07277032 195.3524674 282.52054548 189.5 287 C182.11358208 292.65353395 174.66805534 298.21470194 167.1640625 303.7109375 C161.22328567 308.07277032 155.3524674 312.52054548 149.5 317 C142.11358208 322.65353395 134.66805534 328.21470194 127.1640625 333.7109375 C121.22328567 338.07277032 115.3524674 342.52054548 109.5 347 C102.11358208 352.65353395 94.66805534 358.21470194 87.1640625 363.7109375 C81.22328567 368.07277032 75.3524674 372.52054548 69.5 377 C62.11358208 382.65353395 54.66805534 388.21470194 47.1640625 393.7109375 C41.22328295 398.07277232 35.3525587 402.52066136 29.5 407 C21.1307183 413.40340533 12.69734423 419.71039087 4.1875 425.92578125 C1.66379907 427.76937192 -0.83943814 429.63203631 -3.3125 431.54296875 C-10.43528428 436.97409176 -16.29913929 440.3701026 -25.4375 440.0625 C-36.80027532 438.49737943 -45.45665029 429.64081633 -54.1640625 422.7734375 C-58.80925005 419.12431596 -63.54280894 415.60906944 -68.3125 412.125 C-75.10186923 407.15979707 -81.82148774 402.1133414 -88.5 397 C-95.11938274 391.9333719 -101.77503207 386.92564541 -108.5 382 C-116.12740017 376.4133758 -123.65644565 370.70723662 -131.1640625 364.9609375 C-136.89902727 360.57935674 -142.67759563 356.26457042 -148.5 352 C-156.12740017 346.4133758 -163.65644565 340.70723662 -171.1640625 334.9609375 C-176.89902727 330.57935674 -182.67759563 326.26457042 -188.5 322 C-196.12740017 316.4133758 -203.65644565 310.70723662 -211.1640625 304.9609375 C-216.89902727 300.57935674 -222.67759563 296.26457042 -228.5 292 C-236.12740017 286.4133758 -243.65644565 280.70723662 -251.1640625 274.9609375 C-256.89903035 270.57935439 -262.67768811 266.26470031 -268.5 262 C-278.7726968 254.47268629 -288.90506 246.76367139 -299 239 C-299.81259277 238.37649658 -300.62518555 237.75299316 -301.46240234 237.1105957 C-317.806213 224.50169934 -317.806213 224.50169934 -319 216 C-319.10161662 210.40092445 -317.02583984 206.55322469 -313.5 202.3125 C-303.12848487 191.59305864 -290.31423748 183.16992229 -278.31884766 174.39160156 C-272.32327092 169.99947884 -266.40107693 165.5181052 -260.5 161 C-253.11367991 155.34634038 -245.66805268 149.78529611 -238.1640625 144.2890625 C-232.22328567 139.92722968 -226.3524674 135.47945452 -220.5 131 C-213.11358208 125.34646605 -205.66805534 119.78529806 -198.1640625 114.2890625 C-192.22328567 109.92722968 -186.3524674 105.47945452 -180.5 101 C-173.11358208 95.34646605 -165.66805534 89.78529806 -158.1640625 84.2890625 C-152.22328567 79.92722968 -146.3524674 75.47945452 -140.5 71 C-133.11358208 65.34646605 -125.66805534 59.78529806 -118.1640625 54.2890625 C-112.22328567 49.92722968 -106.3524674 45.47945452 -100.5 41 C-93.11522682 35.34772492 -85.67260576 29.78602244 -78.16845703 24.29345703 C-73.08690813 20.56445182 -68.06035197 16.77068463 -63.05957031 12.93408203 C-58.71955741 9.60526529 -54.36409534 6.29716618 -50 3 C-49.1965918 2.39220703 -48.39318359 1.78441406 -47.56542969 1.15820312 C-45.30638917 -0.53771696 -43.03193049 -2.21005678 -40.75 -3.875 C-39.76845947 -4.61580811 -39.76845947 -4.61580811 -38.76708984 -5.37158203 C-24.69455945 -15.48204859 -12.36454586 -9.51973902 0 0 Z M-27.46484375 19.5703125 C-28.17229736 20.12960449 -28.87975098 20.68889648 -29.60864258 21.26513672 C-30.761427 22.18576904 -30.761427 22.18576904 -31.9375 23.125 C-38.31647083 28.15621076 -44.75155799 33.08346354 -51.3125 37.875 C-58.10191867 42.84013444 -64.82148921 47.88665972 -71.5 53 C-78.88632009 58.65365962 -86.33194732 64.21470389 -93.8359375 69.7109375 C-99.77671433 74.07277032 -105.6475326 78.52054548 -111.5 83 C-118.88641792 88.65353395 -126.33194466 94.21470194 -133.8359375 99.7109375 C-139.77671433 104.07277032 -145.6475326 108.52054548 -151.5 113 C-158.88641792 118.65353395 -166.33194466 124.21470194 -173.8359375 129.7109375 C-179.77671433 134.07277032 -185.6475326 138.52054548 -191.5 143 C-198.88641792 148.65353395 -206.33194466 154.21470194 -213.8359375 159.7109375 C-219.77671433 164.07277032 -225.6475326 168.52054548 -231.5 173 C-238.11948155 178.066524 -244.77535521 183.07389676 -251.5 188 C-258.52323938 193.15072299 -265.49866086 198.36105307 -272.4375 203.625 C-273.77941406 204.63820313 -273.77941406 204.63820313 -275.1484375 205.671875 C-275.98503906 206.30867187 -276.82164062 206.94546875 -277.68359375 207.6015625 C-278.42150146 208.16182129 -279.15940918 208.72208008 -279.91967773 209.29931641 C-282.09403075 211.07687105 -284.0478282 212.98309554 -286 215 C-276.22009833 222.69595009 -266.3623721 230.25925922 -256.31884766 237.6081543 C-249.44962732 242.64395531 -242.67256069 247.79440127 -235.90698242 252.96826172 C-229.96236191 257.51192767 -223.99212203 262.01919151 -218 266.5 C-211.11534074 271.64823288 -204.26632348 276.84045851 -197.4375 282.0625 C-190.07077245 287.6933271 -182.64396646 293.23220181 -175.16381836 298.71118164 C-168.32156327 303.73470835 -161.57629671 308.88001923 -154.8359375 314.0390625 C-149.10097273 318.42064326 -143.32240437 322.73542958 -137.5 327 C-129.87259983 332.5866242 -122.34355435 338.29276338 -114.8359375 344.0390625 C-109.10097273 348.42064326 -103.32240437 352.73542958 -97.5 357 C-89.87259983 362.5866242 -82.34355435 368.29276338 -74.8359375 374.0390625 C-68.34449853 378.99859847 -61.79041064 383.86466496 -55.19482422 388.68457031 C-50.86327787 391.85940206 -46.57417215 395.08098671 -42.3203125 398.359375 C-40.8962207 399.45572266 -40.8962207 399.45572266 -39.44335938 400.57421875 C-37.60478161 401.99360588 -35.76995434 403.41786839 -33.93945312 404.84765625 C-33.10607422 405.49089844 -32.27269531 406.13414062 -31.4140625 406.796875 C-30.6813916 407.36760742 -29.9487207 407.93833984 -29.19384766 408.52636719 C-26.77986514 410.14786713 -24.83190014 411.29313118 -22 412 C-19.68850511 411.03333898 -19.68850511 411.03333898 -17.5859375 409.1875 C-16.75255859 408.53136719 -15.91917969 407.87523437 -15.06054688 407.19921875 C-14.17431641 406.47347656 -13.28808594 405.74773437 -12.375 405 C-10.47774748 403.49850147 -8.57928613 401.99852927 -6.6796875 400.5 C-5.24834473 399.35917969 -5.24834473 399.35917969 -3.78808594 398.1953125 C0.23463282 395.02786179 4.35913366 392.01026335 8.5 389 C15.22686806 384.07700843 21.88059279 379.0664671 28.5 374 C35.88641792 368.34646605 43.33194466 362.78529806 50.8359375 357.2890625 C56.77671433 352.92722968 62.6475326 348.47945452 68.5 344 C75.88641792 338.34646605 83.33194466 332.78529806 90.8359375 327.2890625 C96.77671433 322.92722968 102.6475326 318.47945452 108.5 314 C115.88641792 308.34646605 123.33194466 302.78529806 130.8359375 297.2890625 C136.77671433 292.92722968 142.6475326 288.47945452 148.5 284 C155.88641792 278.34646605 163.33194466 272.78529806 170.8359375 267.2890625 C177.67524077 262.26751425 184.41789671 257.12463313 191.15527344 251.9675293 C196.97577925 247.52038313 202.84198236 243.14258106 208.75 238.8125 C214.99218281 234.23163795 221.20851928 229.61992864 227.375 224.9375 C228.07077148 224.41325439 228.76654297 223.88900879 229.48339844 223.34887695 C233.27890141 220.45258017 236.70986841 217.46162494 240 214 C230.22093843 206.30471099 220.36492463 198.74069593 210.32104492 191.39404297 C204.32559812 186.99994023 198.40193338 182.51876093 192.5 178 C185.88061726 172.9333719 179.22496793 167.92564541 172.5 163 C164.87259983 157.4133758 157.34355435 151.70723662 149.8359375 145.9609375 C144.10097273 141.57935674 138.32240437 137.26457042 132.5 133 C124.87259983 127.4133758 117.34355435 121.70723662 109.8359375 115.9609375 C104.10097273 111.57935674 98.32240437 107.26457042 92.5 103 C84.87259983 97.4133758 77.34355435 91.70723662 69.8359375 85.9609375 C64.10097273 81.57935674 58.32240437 77.26457042 52.5 73 C44.87259983 67.4133758 37.34355435 61.70723662 29.8359375 55.9609375 C23.34457427 51.0014594 16.78728704 46.1401321 10.19702148 41.31323242 C1.40207743 34.85572915 -7.25957406 28.22382898 -15.91967773 21.5871582 C-16.60618408 21.063396 -17.29269043 20.53963379 -18 20 C-18.70777588 19.43692139 -19.41555176 18.87384277 -20.14477539 18.29370117 C-23.40688296 16.01894028 -24.63741175 17.31173245 -27.46484375 19.5703125 Z " fill="#000000" transform="translate(535,195)"/>
<path d="M0 0 C2.62013696 0.93790852 4.47147815 2.26028586 6.69799805 3.93017578 C7.54233398 4.55859375 8.38666992 5.18701172 9.2565918 5.83447266 C10.56563477 6.82350586 10.56563477 6.82350586 11.90112305 7.83251953 C12.78928711 8.49574219 13.67745117 9.15896484 14.5925293 9.84228516 C16.78301952 11.47926441 18.96895039 13.12197833 21.15112305 14.77001953 C19.7791613 17.99419452 18.3819257 19.63734124 15.5378418 21.66064453 C14.7953418 22.19689453 14.0528418 22.73314453 13.2878418 23.28564453 C12.47959961 23.85798828 11.67135742 24.43033203 10.83862305 25.02001953 C9.10173583 26.27355281 7.36610337 27.52882613 5.6315918 28.78564453 C4.72844238 29.43855469 3.82529297 30.09146484 2.89477539 30.76416016 C-1.57270917 34.03029765 -5.95899539 37.40070771 -10.34887695 40.77001953 C-18.68272374 47.14989836 -27.09708156 53.41016396 -35.55981445 59.61767578 C-41.02218989 63.62511944 -46.44080132 67.68967504 -51.84887695 71.77001953 C-47.74663854 76.15713561 -43.21411481 79.57874741 -38.34887695 83.08251953 C-31.28207232 88.22750472 -24.28680115 93.45253361 -17.34887695 98.77001953 C-10.72977654 103.83700894 -4.07383678 108.84438006 2.65112305 113.77001953 C10.27852321 119.35664373 17.80756869 125.06278292 25.31518555 130.80908203 C31.05015032 135.19066279 36.82871868 139.50544911 42.65112305 143.77001953 C50.27852321 149.35664373 57.80756869 155.06278292 65.31518555 160.80908203 C71.05015032 165.19066279 76.82871868 169.50544911 82.65112305 173.77001953 C90.27852321 179.35664373 97.80756869 185.06278292 105.31518555 190.80908203 C111.05015032 195.19066279 116.82871868 199.50544911 122.65112305 203.77001953 C130.27852321 209.35664373 137.80756869 215.06278292 145.31518555 220.80908203 C151.05015214 225.19066418 156.82877498 229.50537023 162.65112305 233.77001953 C170.33000069 239.39577728 177.91800414 245.13280865 185.47998047 250.91455078 C193.3323468 256.91752379 201.23181913 262.85574447 209.15112305 268.77001953 C211.97862269 267.43560582 214.44722872 265.93232602 216.9597168 264.07470703 C217.69577148 263.53201172 218.43182617 262.98931641 219.19018555 262.43017578 C219.98166992 261.84107422 220.7731543 261.25197266 221.58862305 260.64501953 C222.42264648 260.02755859 223.25666992 259.41009766 224.1159668 258.77392578 C231.2299355 253.49138057 238.27454443 248.11943784 245.31103516 242.734375 C251.81436331 237.76514994 258.3843956 232.89514766 264.98706055 228.05908203 C270.92783738 223.69724921 276.79865565 219.24947405 282.65112305 214.77001953 C290.03754096 209.11648558 297.4830677 203.55531759 304.98706055 198.05908203 C310.92783738 193.69724921 316.79865565 189.24947405 322.65112305 184.77001953 C330.03754096 179.11648558 337.4830677 173.55531759 344.98706055 168.05908203 C350.92783738 163.69724921 356.79865565 159.24947405 362.65112305 154.77001953 C370.03754096 149.11648558 377.4830677 143.55531759 384.98706055 138.05908203 C390.92783738 133.69724921 396.79865565 129.24947405 402.65112305 124.77001953 C410.03754096 119.11648558 417.4830677 113.55531759 424.98706055 108.05908203 C431.81372759 103.04681154 438.54414749 97.91373447 445.26904297 92.76611328 C454.14459029 85.9848335 463.13373995 79.36102597 472.15112305 72.77001953 C467.72279147 68.02277518 462.70374051 64.2298534 457.52612305 60.33251953 C456.59606445 59.62804687 455.66600586 58.92357422 454.70776367 58.19775391 C447.96243169 53.10097557 441.16565096 48.0763401 434.3449707 43.08105469 C427.24936383 37.87325621 420.24934104 32.54362452 413.26635742 27.18603516 C408.61904032 23.62538612 403.93836503 20.14049666 399.15112305 16.77001953 C400.52962257 12.63452096 403.44219116 11.18865431 406.90112305 8.83251953 C408.14685081 7.97058964 409.39165833 7.10732807 410.63549805 6.24267578 C411.23813477 5.83033691 411.84077148 5.41799805 412.46166992 4.99316406 C414.37266217 3.65531604 414.37266217 3.65531604 416.79174805 1.39111328 C419.15112305 -0.22998047 419.15112305 -0.22998047 421.5637207 0.00195312 C424.25349562 0.80040867 425.74466994 1.6830774 427.90893555 3.43798828 C428.95561401 4.27209229 428.95561401 4.27209229 430.0234375 5.12304688 C430.76682373 5.72842285 431.51020996 6.33379883 432.27612305 6.95751953 C433.89551862 8.24741481 435.51666701 9.53511204 437.1394043 10.82080078 C437.97036621 11.48031738 438.80132813 12.13983398 439.6574707 12.81933594 C443.52957021 15.84832312 447.49179812 18.74876696 451.46362305 21.64501953 C459.30992286 27.3829571 467.0641968 33.23296593 474.78027344 39.14477539 C480.26987345 43.35005157 480.26987345 43.35005157 485.8269043 47.46533203 C503.53243611 60.37889653 503.53243611 60.37889653 505.8972168 68.74658203 C506.55132154 73.95929372 505.49536899 77.80385739 502.5300293 82.14111328 C493.0699003 93.31801427 480.36390289 101.69545486 468.62231445 110.27685547 C462.57367993 114.70021357 456.60013716 119.21374753 450.65112305 123.77001953 C443.26490085 129.42380487 435.81917305 134.98472538 428.31518555 140.48095703 C422.37440871 144.84278986 416.50359044 149.29056501 410.65112305 153.77001953 C403.26470513 159.42355348 395.81917839 164.98472147 388.31518555 170.48095703 C382.37440871 174.84278986 376.50359044 179.29056501 370.65112305 183.77001953 C363.26470513 189.42355348 355.81917839 194.98472147 348.31518555 200.48095703 C342.37440871 204.84278986 336.50359044 209.29056501 330.65112305 213.77001953 C323.26470513 219.42355348 315.81917839 224.98472147 308.31518555 230.48095703 C302.37440871 234.84278986 296.50359044 239.29056501 290.65112305 243.77001953 C283.26552731 249.42292419 275.82145301 254.98435791 268.31738281 260.47875977 C262.35152325 264.85785564 256.46276314 269.33137381 250.58862305 273.83251953 C243.82493066 279.00423914 237.03140716 284.12913445 230.15112305 289.14501953 C229.41563232 289.68650635 228.6801416 290.22799316 227.92236328 290.78588867 C220.85157544 295.90154361 213.89053716 298.62735857 205.02612305 297.45751953 C197.79079682 295.55671349 191.97637775 290.24893998 186.15112305 285.77001953 C184.51753594 284.52713844 182.88339099 283.28499031 181.2487793 282.04345703 C178.57761997 280.01183585 175.90845316 277.97777544 173.24389648 275.9375 C167.42555585 271.48371117 161.56323163 267.09840565 155.65112305 262.77001953 C148.02359615 257.18357194 140.49467337 251.47725307 132.98706055 245.73095703 C127.25209577 241.34937628 121.47352742 237.03458996 115.65112305 232.77001953 C108.02372288 227.18339533 100.4946774 221.47725615 92.98706055 215.73095703 C87.25209577 211.34937628 81.47352742 207.03458996 75.65112305 202.77001953 C68.02372288 197.18339533 60.4946774 191.47725615 52.98706055 185.73095703 C47.25209577 181.34937628 41.47352742 177.03458996 35.65112305 172.77001953 C28.02372288 167.18339533 20.4946774 161.47725615 12.98706055 155.73095703 C7.25209577 151.34937628 1.47352742 147.03458996 -4.34887695 142.77001953 C-11.97627712 137.18339533 -19.5053226 131.47725615 -27.01293945 125.73095703 C-32.74792045 121.34936388 -38.52698422 117.03530532 -44.34887695 112.77001953 C-51.29865669 107.66788208 -58.21838119 102.5277994 -65.09887695 97.33251953 C-66.40308594 96.35702148 -66.40308594 96.35702148 -67.73364258 95.36181641 C-83.32543629 83.5373306 -83.32543629 83.5373306 -85.72387695 74.45751953 C-85.92727682 68.45722332 -84.56060226 64.89282847 -80.86450195 60.30908203 C-74.00697487 53.04691826 -66.0992364 47.32307769 -58.01293945 41.50830078 C-52.71302052 37.69627306 -47.52728231 33.74482401 -42.34887695 29.77001953 C-33.98721789 23.37039608 -25.56005311 17.06887865 -17.0559082 10.85986328 C-14.46462759 8.96710684 -11.89786948 7.05093474 -9.3605957 5.08642578 C-8.38735352 4.34263672 -7.41411133 3.59884766 -6.41137695 2.83251953 C-5.60829102 2.20474609 -4.80520508 1.57697266 -3.9777832 0.93017578 C-1.84887695 -0.22998047 -1.84887695 -0.22998047 0 0 Z " fill="#000000" transform="translate(301.848876953125,542.22998046875)"/>
</svg>
